<?xml version="1.0" encoding="UTF-8"?>
<svg xmlns="http://www.w3.org/2000/svg" xmlns:xlink="http://www.w3.org/1999/xlink" viewBox="0 0 50 50" width="50px" height="50px">
<g id="surface113674533">
<path style=" stroke:none;fill-rule:nonzero;fill:rgb(87.450981%,87.450981%,87.450981%);fill-opacity:1;" d="M 24.929688 2.003906 C 24.820312 2.003906 24.710938 2.019531 24.605469 2.058594 L 3.671875 9.34375 C 3.226562 9.496094 2.949219 9.9375 3.007812 10.40625 L 6.316406 37.53125 C 6.355469 37.851562 6.546875 38.132812 6.832031 38.289062 L 24.480469 47.878906 C 24.625 47.960938 24.792969 48 24.957031 48 C 25.121094 48 25.285156 47.957031 25.433594 47.878906 L 43.175781 38.152344 C 43.457031 38 43.648438 37.71875 43.683594 37.398438 L 46.992188 10.277344 C 47.050781 9.808594 46.769531 9.359375 46.320312 9.210938 L 25.253906 2.054688 C 25.148438 2.019531 25.039062 2 24.929688 2.003906 Z M 25 7 L 38 35 L 33.5625 35 L 30.78125 29.007812 L 19.21875 29.007812 L 16.4375 35 L 12 35 Z M 25 16.5 L 21.082031 25 L 28.917969 25 Z M 25 16.5 "/>
</g>
</svg>
