<?xml version="1.0" encoding="UTF-8"?>
<svg xmlns="http://www.w3.org/2000/svg" xmlns:xlink="http://www.w3.org/1999/xlink" viewBox="0 0 50 50" width="50px" height="50px">
<g id="surface111435781">
<path style=" stroke:none;fill-rule:nonzero;fill:rgb(87.450981%,87.450981%,87.450981%);fill-opacity:1;" d="M 26.707031 3.292969 L 5.707031 24.292969 C 5.316406 24.683594 5.316406 25.316406 5.707031 25.707031 L 11.292969 31.292969 C 11.683594 31.683594 12.316406 31.683594 12.707031 31.292969 L 39.292969 4.707031 C 39.921875 4.078125 39.476562 3 38.585938 3 L 27.414062 3 C 27.148438 3 26.894531 3.105469 26.707031 3.292969 Z M 39.292969 24.707031 L 22 42 L 15.707031 35.707031 C 15.316406 35.316406 15.316406 34.683594 15.707031 34.292969 L 26.707031 23.292969 C 26.894531 23.105469 27.148438 23 27.414062 23 L 38.585938 23 C 39.476562 23 39.921875 24.078125 39.292969 24.707031 Z M 39.292969 45.292969 L 32 38 L 22 42 L 26.707031 46.707031 C 26.894531 46.894531 27.148438 47 27.414062 47 L 38.585938 47 C 39.476562 47 39.921875 45.921875 39.292969 45.292969 Z M 39.292969 45.292969 "/>
</g>
</svg>
