<?xml version="1.0" encoding="UTF-8"?>
<svg xmlns="http://www.w3.org/2000/svg" xmlns:xlink="http://www.w3.org/1999/xlink" viewBox="0 0 64 64" width="64px" height="64px">
<g id="surface110513817">
<path style=" stroke:none;fill-rule:nonzero;fill:rgb(87.450981%,87.450981%,87.450981%);fill-opacity:1;" d="M 42.601562 12 C 42.289062 12 42 12.25 42 12.601562 L 42 23.59375 L 39.507812 22.140625 C 39.351562 22.046875 39.175781 22.003906 39 22.003906 C 38.824219 22.003906 38.648438 22.046875 38.492188 22.140625 L 32.503906 25.632812 C 32.191406 25.8125 32 26.144531 32 26.503906 L 32 33.496094 C 32 33.855469 32.191406 34.1875 32.503906 34.367188 L 38.492188 37.859375 C 38.648438 37.953125 38.824219 37.996094 39 37.996094 C 39.175781 37.996094 39.351562 37.953125 39.507812 37.859375 L 45.496094 34.367188 C 45.808594 34.1875 46 33.855469 46 33.496094 L 46 14.460938 C 46 14.105469 45.808594 13.777344 45.503906 13.597656 L 42.898438 12.082031 C 42.800781 12.027344 42.703125 12 42.601562 12 Z M 23 22.003906 C 22.824219 22.003906 22.648438 22.050781 22.492188 22.140625 L 16.503906 25.632812 C 16.191406 25.8125 16 26.144531 16 26.503906 L 16 33.496094 C 16 33.855469 16.191406 34.1875 16.503906 34.367188 L 22.492188 37.859375 C 22.804688 38.042969 23.195312 38.042969 23.507812 37.859375 L 29.496094 34.367188 C 29.808594 34.1875 30 33.855469 30 33.496094 L 30 26.503906 C 30 26.144531 29.808594 25.8125 29.496094 25.632812 L 23.507812 22.140625 C 23.351562 22.050781 23.175781 22.003906 23 22.003906 Z M 55 22.003906 C 54.824219 22.003906 54.648438 22.046875 54.492188 22.140625 L 48.503906 25.632812 C 48.191406 25.8125 48 26.144531 48 26.503906 L 48 33.496094 C 48 33.855469 48.191406 34.1875 48.503906 34.367188 L 54.3125 37.878906 C 54.625 38.070312 55.015625 38.070312 55.332031 37.886719 L 58.1875 36.226562 C 58.484375 36.054688 58.484375 35.628906 58.1875 35.453125 L 52 31.808594 L 52 28.21875 L 55 26.472656 L 58 28.21875 L 58 30.71875 C 58 31.054688 58.28125 31.105469 58.46875 30.992188 C 59.226562 30.546875 61.503906 29.226562 61.503906 29.226562 C 61.808594 29.046875 62 28.71875 62 28.363281 L 62 26.503906 C 62 26.144531 61.808594 25.8125 61.496094 25.632812 L 55.507812 22.140625 C 55.351562 22.046875 55.175781 22.003906 55 22.003906 Z M 7 22.007812 C 6.824219 22.007812 6.648438 22.050781 6.492188 22.144531 L 0.503906 25.632812 C 0.191406 25.816406 0 26.148438 0 26.507812 L 0 35.433594 C 0 35.871094 0.472656 36.140625 0.847656 35.921875 L 3.503906 34.375 C 3.808594 34.195312 4 33.867188 4 33.511719 L 4 28.226562 L 7 26.476562 L 10 28.226562 L 10 33.511719 C 10 33.867188 10.191406 34.195312 10.496094 34.375 L 13.152344 35.921875 C 13.527344 36.140625 14 35.871094 14 35.433594 L 14 26.507812 C 14 26.148438 13.808594 25.816406 13.496094 25.632812 L 7.507812 22.144531 C 7.351562 22.050781 7.175781 22.007812 7 22.007812 Z M 39 26.472656 L 42 28.222656 L 42 31.777344 L 39 33.527344 L 36 31.777344 L 36 28.222656 Z M 55 28.007812 L 53.285156 29.007812 L 53.285156 31.003906 L 55 32 L 56.714844 31.003906 L 56.714844 29.007812 Z M 30.8125 35.996094 C 30.605469 35.996094 30.398438 36.046875 30.21875 36.148438 L 24.59375 39.398438 C 24.222656 39.601562 24 40.003906 24 40.421875 L 24 46.914062 C 24 47.332031 24.234375 47.726562 24.59375 47.9375 L 26.074219 48.78125 C 26.785156 49.132812 27.046875 49.132812 27.367188 49.132812 C 28.425781 49.132812 29.03125 48.5 29.03125 47.378906 L 29.03125 40.964844 C 29.03125 40.867188 28.957031 40.796875 28.867188 40.796875 L 28.15625 40.796875 C 28.058594 40.796875 27.988281 40.875 27.988281 40.964844 L 27.988281 47.378906 C 27.988281 47.863281 27.476562 48.363281 26.636719 47.945312 L 25.097656 47.058594 C 25.046875 47.027344 25.011719 46.96875 25.011719 46.910156 L 25.011719 40.417969 C 25.011719 40.359375 25.039062 40.292969 25.097656 40.261719 L 30.722656 37.019531 C 30.78125 36.988281 30.851562 36.988281 30.898438 37.019531 L 36.527344 40.261719 C 36.585938 40.292969 36.613281 40.351562 36.613281 40.417969 L 36.613281 46.910156 C 36.613281 46.976562 36.574219 47.035156 36.527344 47.066406 L 30.898438 50.320312 C 30.847656 50.351562 30.769531 50.351562 30.722656 50.320312 L 29.285156 49.464844 C 29.246094 49.445312 29.1875 49.433594 29.148438 49.453125 C 28.75 49.6875 28.671875 49.71875 28.300781 49.84375 C 28.203125 49.875 28.070312 49.933594 28.351562 50.089844 L 30.21875 51.199219 C 30.40625 51.296875 30.609375 51.355469 30.8125 51.355469 C 31.027344 51.355469 31.234375 51.296875 31.398438 51.191406 L 37.023438 47.9375 C 37.394531 47.734375 37.617188 47.332031 37.617188 46.914062 L 37.617188 40.421875 C 37.617188 40.003906 37.382812 39.613281 37.023438 39.398438 L 31.398438 36.148438 C 31.222656 36.046875 31.019531 35.996094 30.8125 35.996094 Z M 39.585938 38.992188 C 39.011719 38.992188 38.507812 39.457031 38.507812 40.070312 C 38.507812 40.664062 38.992188 41.152344 39.585938 41.152344 C 40.179688 41.152344 40.664062 40.664062 40.664062 40.070312 C 40.664062 39.457031 40.171875 38.980469 39.585938 38.992188 Z M 39.574219 39.164062 C 40.082031 39.164062 40.492188 39.5625 40.492188 40.070312 C 40.492188 40.566406 40.082031 40.976562 39.574219 40.988281 C 39.078125 40.988281 38.671875 40.578125 38.671875 40.070312 C 38.671875 39.5625 39.078125 39.164062 39.574219 39.164062 Z M 39.179688 39.457031 L 39.179688 40.671875 L 39.410156 40.671875 L 39.410156 40.1875 L 39.625 40.1875 C 39.714844 40.1875 39.734375 40.226562 39.753906 40.292969 C 39.753906 40.304688 39.789062 40.617188 39.800781 40.675781 L 40.050781 40.675781 C 40.023438 40.617188 40.003906 40.453125 39.992188 40.351562 C 39.964844 40.195312 39.953125 40.089844 39.789062 40.078125 C 39.878906 40.046875 40.023438 40 40.023438 39.777344 C 40.023438 39.457031 39.742188 39.457031 39.597656 39.457031 Z M 39.410156 39.652344 L 39.605469 39.652344 C 39.664062 39.652344 39.78125 39.652344 39.78125 39.816406 C 39.78125 39.882812 39.75 39.996094 39.59375 39.992188 L 39.410156 39.992188 Z M 32.320312 40.644531 C 30.714844 40.644531 29.761719 41.328125 29.761719 42.457031 C 29.761719 43.691406 30.714844 44.023438 32.253906 44.179688 C 34.09375 44.363281 34.238281 44.628906 34.238281 44.988281 C 34.238281 45.621094 33.730469 45.882812 32.542969 45.882812 C 31.054688 45.882812 30.726562 45.511719 30.617188 44.773438 C 30.605469 44.695312 30.539062 44.636719 30.449219 44.636719 L 29.71875 44.636719 C 29.628906 44.636719 29.554688 44.707031 29.554688 44.804688 C 29.554688 45.75 30.070312 46.878906 32.53125 46.878906 C 34.335938 46.875 35.359375 46.175781 35.359375 44.949219 C 35.359375 43.734375 34.539062 43.410156 32.808594 43.175781 C 31.054688 42.941406 30.882812 42.824219 30.882812 42.414062 C 30.882812 42.074219 31.027344 41.628906 32.320312 41.628906 C 33.476562 41.628906 33.910156 41.882812 34.085938 42.660156 C 34.105469 42.738281 34.160156 42.785156 34.238281 42.785156 L 34.96875 42.785156 C 35.015625 42.785156 35.058594 42.765625 35.085938 42.738281 C 35.117188 42.699219 35.136719 42.660156 35.125 42.613281 C 35.007812 41.269531 34.121094 40.644531 32.320312 40.644531 Z M 32.320312 40.644531 "/>
</g>
</svg>
