<?xml version="1.0" encoding="UTF-8"?>
<svg xmlns="http://www.w3.org/2000/svg" xmlns:xlink="http://www.w3.org/1999/xlink" viewBox="0 0 28 38" width="50px" height="50px">
<g id="surface111429680">
<path style=" stroke:none;fill-rule:nonzero;fill:rgb(87.450981%,87.450981%,87.450981%);fill-opacity:1;" d="M 10.03125 9.574219 C 9.78125 9.574219 9.523438 9.589844 9.257812 9.621094 L 9.410156 10.097656 C 9.644531 10.074219 9.875 10.066406 10.113281 10.066406 L 10.195312 10.066406 Z M 13.117188 10.050781 L 13.085938 10.585938 C 13.351562 10.675781 13.609375 10.773438 13.871094 10.878906 L 13.902344 10.335938 C 13.828125 10.292969 13.625 10.195312 13.117188 10.050781 Z M 6.464844 10.355469 C 6.265625 10.460938 6.054688 10.574219 5.835938 10.703125 L 6.207031 11.269531 C 6.417969 11.140625 6.621094 11.019531 6.832031 10.914062 Z M 10.136719 10.382812 C 9.90625 10.382812 9.679688 10.398438 9.449219 10.417969 C 7.089844 10.628906 4.191406 12.78125 2.5 15.597656 C 0.800781 18.429688 0.570312 20.832031 0.570312 20.832031 L 6.949219 20.832031 C 6.949219 20.832031 5.730469 15.261719 9.769531 13 C 10.609375 12.589844 13.222656 11.109375 17.460938 13.949219 L 17.777344 13.660156 C 16.578125 12.628906 13.535156 10.359375 10.136719 10.382812 Z M 13.101562 12.589844 L 13.070312 13.097656 C 13.335938 13.105469 13.601562 13.136719 13.871094 13.195312 L 13.902344 12.691406 C 13.628906 12.636719 13.359375 12.605469 13.101562 12.589844 Z M 11.210938 12.785156 C 10.9375 12.863281 10.703125 12.953125 10.5 13.042969 L 10.6875 13.597656 C 10.917969 13.488281 11.15625 13.390625 11.390625 13.316406 Z M 3.203125 12.816406 C 2.992188 13.019531 2.789062 13.21875 2.605469 13.421875 L 3.226562 13.957031 C 3.394531 13.738281 3.582031 13.519531 3.777344 13.316406 Z M 8.988281 14.011719 C 8.800781 14.183594 8.632812 14.367188 8.484375 14.554688 L 8.875 15.136719 C 9.011719 14.933594 9.171875 14.746094 9.351562 14.5625 Z M 10.152344 15.164062 L 10.152344 20.726562 L 11.503906 20.726562 L 11.503906 19.1875 L 11.675781 19.367188 L 12.945312 20.726562 L 15 20.726562 L 13.214844 18.929688 L 13.429688 18.910156 C 13.484375 18.902344 14.753906 18.769531 14.753906 17.0625 C 14.753906 15.347656 13.195312 15.171875 13.136719 15.164062 Z M 17.109375 15.203125 C 16.058594 15.203125 15.703125 16.167969 15.703125 16.609375 L 15.703125 20.726562 L 17.082031 20.726562 L 17.082031 19.71875 L 18.761719 19.71875 L 18.761719 20.726562 L 20.085938 20.726562 L 20.085938 16.609375 C 20.085938 15.460938 19.050781 15.203125 18.683594 15.203125 Z M 21.007812 15.203125 L 21.007812 20.726562 L 22.449219 20.726562 L 22.449219 15.203125 Z M 23.316406 15.203125 L 23.316406 20.726562 L 26.960938 20.726562 L 26.960938 19.445312 L 24.753906 19.445312 L 24.753906 15.203125 Z M 29.03125 15.203125 C 28.4375 15.203125 27.617188 15.699219 27.617188 16.632812 L 27.617188 17.140625 C 27.617188 18.097656 28.460938 18.546875 29.03125 18.546875 L 29.746094 18.546875 C 29.859375 18.542969 30.375 18.546875 30.375 18.546875 L 30.375 19.457031 L 27.699219 19.464844 L 27.699219 20.722656 L 30.246094 20.722656 C 30.769531 20.722656 31.617188 20.34375 31.644531 19.324219 L 31.644531 18.753906 C 31.644531 17.878906 30.933594 17.355469 30.246094 17.355469 L 28.828125 17.355469 L 28.828125 16.472656 L 31.4375 16.472656 L 31.4375 15.203125 Z M 7.558594 16.265625 C 7.453125 16.566406 7.378906 16.867188 7.3125 17.15625 L 7.96875 17.671875 C 8.003906 17.359375 8.058594 17.042969 8.140625 16.726562 Z M 17.667969 16.367188 L 18.207031 16.367188 C 18.628906 16.367188 18.75 16.636719 18.753906 16.78125 L 18.753906 18.28125 L 17.074219 18.28125 L 17.074219 16.78125 C 17.074219 16.777344 17.082031 16.367188 17.667969 16.367188 Z M 11.503906 16.40625 L 12.886719 16.414062 C 12.902344 16.421875 13.296875 16.574219 13.296875 17.164062 C 13.296875 17.75 12.894531 17.914062 12.84375 17.925781 L 11.507812 17.925781 Z M 0.40625 16.59375 C 0.25 16.9375 0.0820312 17.34375 0 17.5625 L 0.929688 17.902344 C 1.035156 17.625 1.203125 17.230469 1.335938 16.929688 Z M 7.195312 19.207031 C 7.210938 19.636719 7.25 19.984375 7.292969 20.226562 L 8.261719 20.574219 C 8.1875 20.257812 8.117188 19.902344 8.066406 19.523438 Z M 7.195312 19.207031 "/>
</g>
</svg>
