<svg xmlns="http://www.w3.org/2000/svg" width="24" height="24" viewBox="0 0 24 24" fill="#000"><path d="M20 0a4 4 0 0 1 4 4v16a4 4 0 0 1-4 4H4a4 4 0 0 1-4-4V4a4 4 0 0 1 4-4h16zm-4.89 4.5H8.9C6.33 4.5 4.6 6.15 4.5 8.66V15.09c0 1.3.42 2.41 1.27 3.23a4.34 4.34 0 0 0 2.88 1.17l.27.01h6.16c1.3 0 2.4-.42 3.18-1.18a4.25 4.25 0 0 0 1.23-2.95l.01-.26V8.9c0-1.28-.42-2.36-1.21-3.15a4.24 4.24 0 0 0-2.92-1.23l-.26-.01zm-6.2 1.4h6.24c.9 0 1.66.26 2.2.8.47.5.77 1.18.81 1.97V15.1c0 .94-.32 1.7-.87 2.21-.5.47-1.17.74-1.98.78H8.92c-.91 0-1.67-.26-2.21-.78-.5-.5-.77-1.17-.81-2V8.88c0-.9.26-1.66.8-2.2a2.98 2.98 0 0 1 2-.78h6.45-6.23zM12 8.1a3.88 3.88 0 0 0 0 7.74 3.88 3.88 0 0 0 0-7.74zm0 1.39a2.5 2.5 0 0 1 2.48 2.48A2.5 2.5 0 0 1 12 14.45a2.5 2.5 0 0 1-2.48-2.48A2.5 2.5 0 0 1 12 9.49zm4.02-2.36a.88.88 0 1 0 0 1.76.88.88 0 0 0 0-1.76z"/></svg>